<svg xmlns="http://www.w3.org/2000/svg" version="1.1" xmlns:xlink="http://www.w3.org/1999/xlink" xmlns:svgjs="http://svgjs.com/svgjs" width="112" height="47"><svg width="112" height="47" viewBox="0 0 112 47" fill="none" xmlns="http://www.w3.org/2000/svg">
<path d="M22.1353 14.6896L23.7182 0.899706H31.1459L27.0668 23H17.7213L15.6513 10.6713L13.2465 23H4.29676L0.217647 0.899706H7.64529L9.19779 14.5069L11.6331 0.899706H19.7609L22.1353 14.6896ZM51.2585 6.9575C48.8435 6.83573 47.0576 6.7647 45.9008 6.74441V17.1553C47.0779 17.135 48.8638 17.064 51.2585 16.9422V23H33.5721V16.9422C35.906 17.064 37.6817 17.135 38.8993 17.1553V6.74441C37.6817 6.7647 35.906 6.83573 33.5721 6.9575V0.899706H51.2585V6.9575ZM53.6978 20.3821C54.3878 19.3471 54.956 18.3831 55.4025 17.4901C55.8693 16.5972 56.3157 15.5622 56.7419 14.3851C58.1828 15.2172 59.8571 15.8666 61.7647 16.3334C63.6724 16.8001 65.4481 17.0335 67.0919 17.0335C68.7763 17.0335 69.9635 16.8915 70.6535 16.6074C71.3435 16.3029 71.6885 15.9782 71.6885 15.6332C71.6885 14.3953 69.8012 13.7763 66.0265 13.7763C61.8865 13.7763 58.8829 13.3501 57.0159 12.4978C55.1488 11.6251 54.2153 10.2249 54.2153 8.29691C54.2153 5.55721 55.3518 3.53794 57.6247 2.23912C59.8977 0.940293 62.8504 0.290882 66.4831 0.290882C68.5937 0.290882 70.755 0.564852 72.9671 1.11279C75.1994 1.64044 77.2085 2.37103 78.9944 3.30456C78.4059 4.64397 77.7869 6.27765 77.1375 8.20559C77.0157 8.61147 76.9143 8.91588 76.8331 9.11882C75.7981 8.28676 74.2354 7.59676 72.1452 7.04882C70.0549 6.48059 68.2081 6.19647 66.6049 6.19647C64.6769 6.19647 63.3781 6.32838 62.7084 6.59221C62.0387 6.83574 61.7038 7.20103 61.7038 7.68809C61.7038 8.17515 62.1604 8.57088 63.0737 8.87529C64.0072 9.15941 65.3466 9.30147 67.0919 9.30147C71.3943 9.30147 74.5196 9.79868 76.4678 10.7931C78.416 11.7672 79.3902 13.269 79.3902 15.2984C79.3902 18.1396 78.3552 20.1893 76.2852 21.4475C74.2152 22.6854 71.0797 23.3044 66.8788 23.3044C64.6262 23.3044 62.3329 23.0609 59.9991 22.5738C57.6653 22.0665 55.5649 21.3359 53.6978 20.3821ZM107.33 0.899706C107.188 4.32941 107.117 8.01279 107.117 11.9499C107.117 15.8869 107.188 19.5703 107.33 23H100.176V14.72H88.9739V23H81.8202C81.9826 19.0629 82.0637 15.3796 82.0637 11.9499C82.0637 8.52015 81.9826 4.83677 81.8202 0.899706H88.9739V9.17971H100.176V0.899706H107.33ZM18.0562 35.0107C22.6832 35.0107 24.9968 36.4821 24.9968 39.4247C24.9968 40.8047 24.6822 41.9818 24.0531 42.9559C23.424 43.9097 22.2976 44.6606 20.6741 45.2085C19.0506 45.7362 16.7979 46 13.9162 46H0.217647C0.38 42.0629 0.461176 38.3796 0.461176 34.9499C0.461176 31.5201 0.38 27.8368 0.217647 23.8997H7.37132V23.9301H13.8553C16.3718 23.9301 18.3504 24.1432 19.7913 24.5694C21.2525 24.9753 22.2774 25.574 22.8659 26.3654C23.4747 27.1569 23.7791 28.1615 23.7791 29.3791C23.7791 30.6171 23.3428 31.7231 22.4701 32.6972C21.6178 33.651 20.1465 34.4222 18.0562 35.0107ZM7.37132 29.4704V32.3015H13.216C14.4743 32.3015 15.3469 32.1899 15.834 31.9666C16.3413 31.7434 16.595 31.3375 16.595 30.749C16.595 30.2822 16.3312 29.9575 15.8035 29.7749C15.2962 29.5719 14.4337 29.4704 13.216 29.4704H7.37132ZM13.216 40.4293C14.2713 40.4293 15.0729 40.3887 15.6209 40.3075C16.1891 40.206 16.595 40.0437 16.8385 39.8204C17.0821 39.5769 17.2038 39.2522 17.2038 38.8463C17.2038 38.3187 16.9096 37.9432 16.321 37.72C15.7528 37.4765 14.7178 37.3547 13.216 37.3547H7.37132V40.4293H13.216ZM40.9648 46.3044C36.3175 46.3044 32.8979 45.2999 30.7061 43.2907C28.5144 41.2613 27.4185 38.4201 27.4185 34.7672C27.4185 31.1549 28.5042 28.334 30.6757 26.3046C32.8675 24.2751 36.2972 23.2604 40.9648 23.2604C45.6528 23.2604 49.0825 24.2751 51.2539 26.3046C53.4457 28.334 54.5416 31.1549 54.5416 34.7672C54.5416 38.4404 53.4559 41.2816 51.2844 43.2907C49.1129 45.2999 45.6731 46.3044 40.9648 46.3044ZM40.9648 40.0944C43.2175 40.0944 44.841 39.6682 45.8354 38.8159C46.8298 37.9432 47.327 36.5937 47.327 34.7672C47.327 32.9813 46.8298 31.6521 45.8354 30.7794C44.841 29.9068 43.2175 29.4704 40.9648 29.4704C38.7325 29.4704 37.1191 29.9068 36.1247 30.7794C35.1303 31.6521 34.6331 32.9813 34.6331 34.7672C34.6331 36.5734 35.1303 37.9128 36.1247 38.7854C37.1191 39.6581 38.7325 40.0944 40.9648 40.0944ZM70.5142 46.3044C65.8668 46.3044 62.4473 45.2999 60.2555 43.2907C58.0637 41.2613 56.9678 38.4201 56.9678 34.7672C56.9678 31.1549 58.0536 28.334 60.2251 26.3046C62.4168 24.2751 65.8465 23.2604 70.5142 23.2604C75.2021 23.2604 78.6318 24.2751 80.8033 26.3046C82.9951 28.334 84.0909 31.1549 84.0909 34.7672C84.0909 38.4404 83.0052 41.2816 80.8337 43.2907C78.6623 45.2999 75.2224 46.3044 70.5142 46.3044ZM70.5142 40.0944C72.7668 40.0944 74.3903 39.6682 75.3848 38.8159C76.3792 37.9432 76.8764 36.5937 76.8764 34.7672C76.8764 32.9813 76.3792 31.6521 75.3848 30.7794C74.3903 29.9068 72.7668 29.4704 70.5142 29.4704C68.2818 29.4704 66.6684 29.9068 65.674 30.7794C64.6796 31.6521 64.1824 32.9813 64.1824 34.7672C64.1824 36.5734 64.6796 37.9128 65.674 38.7854C66.6684 39.6581 68.2818 40.0944 70.5142 40.0944ZM102.407 46C101.454 44.275 99.8707 41.6368 97.6587 38.0853L94.097 41.6165V46H86.5172C86.6795 42.0629 86.7607 38.3796 86.7607 34.9499C86.7607 31.5201 86.6795 27.8368 86.5172 23.8997H94.097V32.819C97.8312 29.1254 100.49 26.1524 102.073 23.8997H111.936L102.347 33.3974C103.767 35.3862 105.36 37.5475 107.126 39.8813C108.912 42.2151 110.525 44.2547 111.966 46H102.407Z" fill="white"></path>
</svg><style>@media (prefers-color-scheme: light) { :root { filter: contrast(1) brightness(0.1); } }
@media (prefers-color-scheme: dark) { :root { filter: contrast(0.8333333333333334) brightness(1.7); } }
</style></svg>